<svg xmlns="http://www.w3.org/2000/svg" viewBox="0 0 436.37 448"><defs><style>.cls-1{fill:#fff;}</style></defs><title>Asset 4</title><g id="Layer_2" data-name="Layer 2"><g id="Layer_1-2" data-name="Layer 1"><path class="cls-1" d="M318,112.08l10.82-5.82c6.82,12,18.25,20.66,36.69,20.66,22.86,0,36.09-14.64,36.09-34.69,0-20.25-13.83-33.89-37.29-33.89A52.65,52.65,0,0,0,347.45,61l-.61-1.2,40.31-47.32H329V.8h81.4v1L370.71,48.12c26.26,1,44.1,19.25,44.1,44.51,0,27.47-20,46.12-48.92,46.12C342.84,138.75,326.19,127.52,318,112.08Z"/><path class="cls-1" d="M10.93,401.88c0-11.63,4.21-21.65,11.22-31.68l42.71-60.95H79.3L42.41,361.58a32.86,32.86,0,0,1,17.84-5.21c25.67,0,44.71,19.85,44.71,45.31,0,25.06-19.25,45.52-46.91,45.52S10.93,426.94,10.93,401.88Zm80.8-.2c0-18.64-12.43-34.08-33.88-34.08-20.66,0-33.69,15-33.69,34.08,0,18.25,13,33.89,33.69,33.89C78.7,435.57,91.73,419.93,91.73,401.68Z"/><path class="cls-1" d="M296.42,378.22c0-40.3,31.28-69.77,70-69.77s70,29.47,70,69.77S405.09,448,366.39,448,296.42,418.52,296.42,378.22Zm126.31,0c0-33.08-23.85-57.94-56.34-57.94s-56.34,24.86-56.34,57.94,23.87,57.95,56.34,57.95S422.73,411.31,422.73,378.22Z"/><path class="cls-1" d="M13,139.55H0L57.34,0h1l57.55,139.55H102.45L93,115.89H22.65ZM58,28.67,27.27,104.26h61C88.42,104.26,58,28.67,58,28.67Z"/></g></g></svg>