<svg id="Layer_1" data-name="Layer 1" xmlns="http://www.w3.org/2000/svg" viewBox="0 0 140.1 33.51"><defs><style>.cls-1{fill:#fff;}.cls-2{isolation:isolate;}</style></defs><title>goldcrest-logo</title><g id="Group_20" data-name="Group 20"><path id="Path_4" data-name="Path 4" class="cls-1" d="M27.6,27.7a15.45,15.45,0,0,1-21.8,0,15.23,15.23,0,0,1-3.1-4.4,1.76,1.76,0,0,1,.5.4,18.89,18.89,0,0,0,6.5,2.4,47.1,47.1,0,0,0,7.4.6,63.6,63.6,0,0,0,8.7-.6l1.6-.2-1.3-1a.52.52,0,0,0-.4-.2,26.31,26.31,0,0,0-6.1-2.9,71.27,71.27,0,0,0,9.1-3.5c.1-.1.3-.1.4-.2l1.5-.7L29,16.9a25,25,0,0,0-8.2-1.1c-1,0-2,0-3,.1a65.13,65.13,0,0,0,5.3-4.4c2.9-2.7,4.8-4.8,4.8-4.8l.1-.1a15.52,15.52,0,0,1,3.9,10.3,13.75,13.75,0,0,1-4.3,10.8M5.9,5.8a15.46,15.46,0,0,1,21.5-.3h-.2A32.33,32.33,0,0,0,18,8.1,61.49,61.49,0,0,0,6,15.5c-2,1.6-3.6,2.9-4.4,3.6A15.06,15.06,0,0,1,5.9,5.8M7.3,17.7c-1.1.3-2.2.6-3,.9a73.57,73.57,0,0,1,6.3-4.7,50.67,50.67,0,0,1,8.2-4.6,30.67,30.67,0,0,1,7.1-2.2,70.83,70.83,0,0,1-7,6.4c-1.1.9-2.3,1.8-3.5,2.6a58,58,0,0,0-8.1,1.6m7,2.7c-1-.2-2-.3-2.9-.4l1.2-.6a34.47,34.47,0,0,0,3.2-2,43.61,43.61,0,0,1,5.1-.3,30.53,30.53,0,0,1,6,.6c-1.3.6-3.2,1.3-5.5,2.1-1.3.5-2.8.9-4.2,1.3a24.6,24.6,0,0,0-2.9-.7M8.8,23.7a27.24,27.24,0,0,0,6.9-.9l1.6-.4a30.94,30.94,0,0,1,6.6,2.5c-1.6.1-4,.3-6.7.3a33.84,33.84,0,0,1-9.5-1.1,12.54,12.54,0,0,1-2.5-.9,11.19,11.19,0,0,0,3.6.5M5.5,19.6c.8-.2,1.6-.5,2.6-.7a45.7,45.7,0,0,1,4.6-1,3.51,3.51,0,0,0-.8.5,18.25,18.25,0,0,1-3.2,1.4,19.47,19.47,0,0,0-3.2-.2m-.7,2.2a13.44,13.44,0,0,0,4-.7,45.11,45.11,0,0,1,5.3.7h.2a24.83,24.83,0,0,1-5.4.6,13.55,13.55,0,0,1-4.1-.6ZM29.1,5.5,29,5.4A16.64,16.64,0,0,0,5.4,4.5,16.88,16.88,0,0,0,0,16.8a15.53,15.53,0,0,0,.3,3.1v.3c0,.1.1.2.1.3A16.77,16.77,0,1,0,33.1,13a15.68,15.68,0,0,0-4-7.5" transform="translate(0 -0.03)"/><g class="cls-2"><path class="cls-1" d="M53,12.2A3.39,3.39,0,0,1,54.8,15H53.5a2.62,2.62,0,0,0-1-1.6,3.56,3.56,0,0,0-1.9-.5,2.9,2.9,0,0,0-2.3,1,4.59,4.59,0,0,0-.9,3.1,5,5,0,0,0,.8,2.9A2.73,2.73,0,0,0,50.7,21a3.29,3.29,0,0,0,2.2-.8,3.27,3.27,0,0,0,.9-2.6H50.7V16.5h4.4v5.4h-.9l-.3-1.3a10,10,0,0,1-1.2,1.1,4.77,4.77,0,0,1-2.2.5,4.07,4.07,0,0,1-3-1.2,5.72,5.72,0,0,1-1.4-4,5.68,5.68,0,0,1,1.3-4,4.53,4.53,0,0,1,3.3-1.4A8.65,8.65,0,0,1,53,12.2Z" transform="translate(0 -0.03)"/><path class="cls-1" d="M66.5,13.4a5.29,5.29,0,0,1,1,3.4,6.24,6.24,0,0,1-1.1,3.7,4.52,4.52,0,0,1-3.8,1.8A4.47,4.47,0,0,1,59,20.8a5.67,5.67,0,0,1-1.2-3.7,5.78,5.78,0,0,1,1-3.5,4.47,4.47,0,0,1,3.8-1.9A4.78,4.78,0,0,1,66.5,13.4Zm-1.2,6.4a5.83,5.83,0,0,0,.8-3,4.56,4.56,0,0,0-.9-2.9,3,3,0,0,0-2.5-1.1,3.25,3.25,0,0,0-2.5,1.1,4.4,4.4,0,0,0-1,3.2,4.88,4.88,0,0,0,.8,2.8A3.1,3.1,0,0,0,62.7,21,2.57,2.57,0,0,0,65.3,19.8Z" transform="translate(0 -0.03)"/><path class="cls-1" d="M70.1,12h1.4v8.8h5V22H70.1Z" transform="translate(0 -0.03)"/><path class="cls-1" d="M78.9,12h4a3.8,3.8,0,0,1,3.2,1.5,5.29,5.29,0,0,1,1,3.4,6.84,6.84,0,0,1-.6,2.9,3.71,3.71,0,0,1-3.6,2.3h-4Zm3.8,8.8a3.75,3.75,0,0,0,1.1-.1,3.05,3.05,0,0,0,1.3-1,3.35,3.35,0,0,0,.6-1.6,4.1,4.1,0,0,0,.1-1.1,5,5,0,0,0-.7-2.9,2.64,2.64,0,0,0-2.3-1H80.4v7.7Z" transform="translate(0 -0.03)"/><path class="cls-1" d="M97,12.7A3.71,3.71,0,0,1,98.2,15H96.9a2.14,2.14,0,0,0-.9-1.5,3.57,3.57,0,0,0-1.9-.6,3,3,0,0,0-2.4,1,4.89,4.89,0,0,0-.9,3.2,5.22,5.22,0,0,0,.8,2.9A2.78,2.78,0,0,0,94,21.1a2.4,2.4,0,0,0,2.2-1.2,3.35,3.35,0,0,0,.6-1.6h1.3A4.47,4.47,0,0,1,96.9,21a4.08,4.08,0,0,1-3.2,1.3,4.17,4.17,0,0,1-2.9-1.1,5.62,5.62,0,0,1-1.5-4.3,5.22,5.22,0,0,1,1.2-3.6A4.26,4.26,0,0,1,94,11.8,3.53,3.53,0,0,1,97,12.7Z" transform="translate(0 -0.03)"/><path class="cls-1" d="M101.2,12h4.6a5,5,0,0,1,1.9.3,2.39,2.39,0,0,1,1.4,2.4,2.41,2.41,0,0,1-.4,1.5,2.84,2.84,0,0,1-1,.9,3.49,3.49,0,0,1,.9.6,2.06,2.06,0,0,1,.3,1.3v1.3a2.22,2.22,0,0,0,.1.9.92.92,0,0,0,.4.6V22h-1.7c0-.1-.1-.2-.1-.3a5.38,5.38,0,0,1-.1-.8l-.1-1.7a1.33,1.33,0,0,0-.7-1.3,3.26,3.26,0,0,0-1.2-.2h-3V22h-1.4V12Zm4.4,4.6a2.41,2.41,0,0,0,1.5-.4c.4-.3.5-.7.5-1.4a1.65,1.65,0,0,0-.8-1.5,3.09,3.09,0,0,0-1.1-.2h-3.2v3.4h3.1Z" transform="translate(0 -0.03)"/><path class="cls-1" d="M112.2,12h7.3v1.2h-6v3H119v1.2h-5.5v3.4h6.1V22h-7.4Z" transform="translate(0 -0.03)"/><path class="cls-1" d="M123.3,18.8a2.89,2.89,0,0,0,.4,1.4,2.43,2.43,0,0,0,2.3,1,5.07,5.07,0,0,0,1.3-.2,1.56,1.56,0,0,0,1.2-1.5,1.66,1.66,0,0,0-.5-1.2,6.77,6.77,0,0,0-1.6-.6l-1.3-.3a3.9,3.9,0,0,1-1.8-.7,2.08,2.08,0,0,1-.9-1.9,2.94,2.94,0,0,1,.9-2.2,3.57,3.57,0,0,1,2.6-.9,4.46,4.46,0,0,1,2.6.8,2.78,2.78,0,0,1,1.1,2.4h-1.3a2.78,2.78,0,0,0-.4-1.2,2.48,2.48,0,0,0-2-.8,2.65,2.65,0,0,0-1.7.5,1.35,1.35,0,0,0-.5,1.2,1.15,1.15,0,0,0,.6,1.1,11.79,11.79,0,0,0,1.8.5l1.4.3a5.71,5.71,0,0,1,1.5.6,2.52,2.52,0,0,1,.9,2,2.62,2.62,0,0,1-1.2,2.4,5.07,5.07,0,0,1-2.8.7,4,4,0,0,1-2.9-1,3.25,3.25,0,0,1-1-2.6h1.3Z" transform="translate(0 -0.03)"/><path class="cls-1" d="M140.1,12v1.2h-3.4V22h-1.4V13.2h-3.4V12Z" transform="translate(0 -0.03)"/></g></g></svg>