<svg id="Group_1141" data-name="Group 1141" xmlns="http://www.w3.org/2000/svg" viewBox="0 0 49.423 119.836">
  <defs>
    <style>
      .cls-1 {
        fill: #fff;
      }
    </style>
  </defs>
  <path id="Path_55" data-name="Path 55" class="cls-1" d="M49.842,58.649,43.953,45.3a.362.362,0,0,0-.378-.216l-5.457,1.027a.255.255,0,0,0-.27.27L32.931,68.05H17.965L13.048,46.385a.651.651,0,0,0-.27-.27L7.321,45.088a.307.307,0,0,0-.378.216L1,58.649v.216L5.592,79.072h0l.054,1.3h0l.216,10.7v.108L7,94.146c0,.054.054.108.108.162l4.7,3.458,6.483,19.342a.3.3,0,0,0,.324.216H32.283a.365.365,0,0,0,.324-.216L39.036,97.82l4.7-3.458c.054-.054.108-.108.108-.162l1.135-2.972v-.108l.216-10.7h0l.054-1.3h0l4.592-20.207A.241.241,0,0,0,49.842,58.649ZM38.6,46.763l4.484-.81-4.7,19.883Zm2.485,30.256L33.9,68.807l3.89.486ZM35.416,82.8a5.641,5.641,0,0,0-3.242.81H29.635l4.376-3.62,8.1-.756,1.351,2.7s-3.836.756-4.484.864H35.416Zm3.08.756c-.324,1.027-1.4,3.4-3.566,3.566l-3.512.054a3.551,3.551,0,0,1,.594-2.431,4.141,4.141,0,0,1,3.4-1.243C36.821,83.5,37.848,83.5,38.5,83.557Zm-10.211.81,1.351,27.663H21.261l1.351-27.663Zm-5.889-.7-4.646-3.782,7.672-1.189,7.672,1.189-4.646,3.782Zm-3.674,0a5.761,5.761,0,0,0-3.242-.81c-1.621,0-2.7,0-3.35.054h-.216c-.648-.108-4.484-.864-4.484-.864l1.351-2.7,8.1.756,4.376,3.62Zm.162,1.081a3.278,3.278,0,0,1,.594,2.431l-3.512-.054c-2.215-.162-3.242-2.539-3.566-3.566.648,0,1.675-.054,3.08-.054A4.214,4.214,0,0,1,18.884,84.745ZM9.32,78.586l7.888-8.915-.324,9.671-2.7-.27Zm27.393.486-2.7.27-.324-9.671,7.888,8.969ZM37.9,49.3l-.216,19.288L33.633,68.1Zm-19.991,19.5.054-.054H32.877l.054.054.324,10.374-.648-.108-7.186-1.081-7.186,1.081-.648.108Zm-.7-.7-4.052.486L12.94,49.3ZM13.1,69.293l3.89-.486-7.24,8.158Zm-.864-22.53.216,19.072-4.7-19.883Zm-5.025-.324,5.079,21.5L1.81,58.6ZM1.864,59.568h0L12.4,69.023,6.349,79.234Zm4.7,31.445L6.4,81.936l.162.378.378,9.671Zm.378-9.563-.486-.973.81-1.351L10.4,73.831,8.294,78.748V78.8l-.162.324Zm.81,12.427L7.321,82.692h0l4.322.864a8.071,8.071,0,0,0,1.189,2.431,4.312,4.312,0,0,0,3.134,1.891l3.08.054L12.13,97.172Zm10.59,21.233L12.508,97.658l6.916-9.185ZM20.18,87.339h0v-.054a4.107,4.107,0,0,0-.7-2.918h2.431l-1.351,27.771h0l-1.459,3.08Zm-1.027,29.284,1.837-3.944h8.861l1.837,3.944Zm11.184-4.484h0L28.987,84.367h2.431a3.851,3.851,0,0,0-.7,2.918h0v.054L31.8,115.217Zm2.161,2.972L31.418,88.473l6.916,9.185Zm11.13-32.471-.486,11.238-4.376,3.242L31.85,87.879l3.08-.054a4.312,4.312,0,0,0,3.134-1.891A8.071,8.071,0,0,0,39.252,83.5l4.376-.864Zm-.864-3.566-.162-.324v-.054L40.5,73.777l3.134,5.295.81,1.351-.486.973Zm1.513,11.94-.378.973.378-9.671.162-.378Zm4.755-31.445L44.6,79.234,38.5,69.077l10.536-9.509ZM38.658,68l5.025-21.557,5.4,12.156Z" transform="translate(-0.46 -20.721)"/>
  <g id="Group_61" data-name="Group 61" transform="translate(41.398 3.134)">
    <path id="Path_56" data-name="Path 56" class="cls-1" d="M83.687,7.907l-1.675,4.106A2.626,2.626,0,0,1,79.581,13.8a3.162,3.162,0,0,1-1.189-.27,2.589,2.589,0,0,1-1.513-3.62L78.555,5.8l1.243.486-1.675,4.106a1.531,1.531,0,0,0-.054,1.189,1.331,1.331,0,0,0,.81.7,1.37,1.37,0,0,0,.648.108,1.353,1.353,0,0,0,1.243-.973l1.675-4.106Z" transform="translate(-76.621 -5.8)"/>
  </g>
  <g id="Group_62" data-name="Group 62" transform="translate(32.958 0.81)">
    <path id="Path_57" data-name="Path 57" class="cls-1" d="M66.349,4.526A1.885,1.885,0,0,0,66.025,2.9,2.46,2.46,0,0,0,64.4,1.932L62.513,1.5,61,8.416l1.3.27.594-2.755.7.162.81,3.026,1.459.324-.918-3.35A2,2,0,0,0,66.349,4.526Zm-2.269.432a.685.685,0,0,1-.324-.054L63.161,4.8l.378-1.837.594.108a.943.943,0,0,1,.7.432.979.979,0,0,1,.108.7A.8.8,0,0,1,64.08,4.958Z" transform="translate(-61 -1.5)"/>
  </g>
  <g id="Group_63" data-name="Group 63" transform="translate(25.394)">
    <path id="Path_58" data-name="Path 58" class="cls-1" d="M51.809.27l-.054,1.243L50.026,1.4l-.27,5.835L48.4,7.132l.27-5.781L47,1.243,47.054,0Z" transform="translate(-47)"/>
  </g>
  <g id="Group_64" data-name="Group 64" transform="translate(16.695 0.27)">
    <path id="Path_59" data-name="Path 59" class="cls-1" d="M34.034.5l-1.3.108L30.9,7.9l1.351-.162.486-2.053,2.269-.216.918,1.891,1.351-.108Zm-.973,4.052.54-2.269.973,2.107Z" transform="translate(-30.9 -0.5)"/>
  </g>
  <g id="Group_65" data-name="Group 65" transform="translate(8.374 1.621)">
    <path id="Path_60" data-name="Path 60" class="cls-1" d="M21.011,9.754l-3.62,1.027L15.5,3.973,19.012,3l.324,1.189-2.215.594.486,1.567,1.891-.54L19.822,7l-1.891.54.432,1.675,2.323-.648Z" transform="translate(-15.5 -3)"/>
  </g>
  <g id="Group_66" data-name="Group 66" transform="translate(0 3.998)">
    <path id="Path_61" data-name="Path 61" class="cls-1" d="M5.727,14.532l-1.243.594L2.053,9.777l-1.567.7L0,9.4l4.322-2,.54,1.135-1.567.7Z" transform="translate(0 -7.4)"/>
  </g>
  <g id="Group_67" data-name="Group 67" transform="translate(39.711 109.895)">
    <path id="Path_62" data-name="Path 62" class="cls-1" d="M74.851,203.4l-1.243.432-.108,7.51,1.3-.432V208.8l2.161-.756,1.3,1.675,1.3-.432Zm1.4,3.674-1.4.486v-2.323Z" transform="translate(-73.5 -203.4)"/>
  </g>
  <g id="Group_68" data-name="Group 68" transform="translate(30.959 111.57)">
    <path id="Path_63" data-name="Path 63" class="cls-1" d="M60.542,208.013l1.081,5.727-1.351.27-1.081-5.727-1.675.324-.216-1.243L62,206.5l.216,1.243Z" transform="translate(-57.3 -206.5)"/>
  </g>
  <g id="Group_69" data-name="Group 69" transform="translate(25.285 112.704)">
    <path id="Path_64" data-name="Path 64" class="cls-1" d="M50.852,215.57l-3.728.162-.324-7.078,1.351-.054.27,5.835,2.377-.108Z" transform="translate(-46.8 -208.6)"/>
  </g>
  <g id="Group_70" data-name="Group 70" transform="translate(15.128 112.326)">
    <path id="Path_65" data-name="Path 65" class="cls-1" d="M32.755,208.062l-1.3-.162L28,214.6l1.351.162.973-1.891,2.269.27.432,2.053,1.351.162Zm-1.891,3.728,1.027-2.107.486,2.269Z" transform="translate(-28 -207.9)"/>
  </g>
  <g id="Group_71" data-name="Group 71" transform="translate(4.052 109.03)">
    <path id="Path_66" data-name="Path 66" class="cls-1" d="M16.847,204.231l-2.323,6.7-1.243-.432,1.567-4.484-3.08,3.35-1.135-.432-.378-4.484-1.513,4.484L7.5,208.5l2.269-6.7,1.567.54.432,5.187,3.512-3.836Z" transform="translate(-7.5 -201.8)"/>
  </g>
</svg>
